<svg width="215" height="184" viewBox="0 0 215 184" fill="none" xmlns="http://www.w3.org/2000/svg">
<g clip-path="url(#clip0_22_2)">
<path d="M73.9062 21.4318H141.724L142.354 22.1636L143.928 24.9864L144.978 26.9727L146.658 30.0045L147.917 32.2L149.282 34.6045L150.542 36.6955L152.327 39.7273L153.376 41.5045L157.996 49.5545L159.36 51.8545L160.935 54.5727L161.985 56.35L163.455 58.9636L166.394 64.0864L167.969 66.8045L168.914 68.3727L169.963 70.15L171.748 73.0773L173.428 76.0045L175.002 78.8273L175.842 80.1864V80.2909L169.229 80.3955H103.511L90.4932 80.2909L87.2388 80.1864L87.4487 79.6636L88.7085 77.6773L89.5483 76.2136L91.0181 73.8091L92.0679 71.9273L93.0127 70.3591L94.0625 68.4773L94.1675 68.3727L95.9521 68.2682L132.38 68.1636H150.647L154.006 68.0591L154.846 67.9545V67.6409L154.111 66.4909L152.957 64.4L151.592 61.9955L149.702 58.8591L147.917 55.9318L146.133 52.9L144.663 50.2864L143.823 48.8227L142.458 46.4182L140.884 43.5955L139.204 40.7727L137.839 38.5773L136.37 36.0682L135.635 34.9182L134.69 33.8727L134.27 33.6636L133.43 33.5591L118.103 33.6636L90.7031 33.7682H79.9951L76.0059 33.6636H74.2212L73.4863 34.7091L72.4365 36.3818L70.9668 38.5773L69.4971 40.8773L68.0273 43.3864L66.3477 46.3136L65.1929 48.4045L64.353 49.8682L63.4082 51.6455L62.5684 53.0045L61.3086 55.2L60.2588 56.8727L58.1592 60.4273L56.8994 62.7273L56.0596 64.1909L54.6948 66.5955L53.2251 69.2091L51.8604 71.6136L50.9155 73.0773L49.5508 75.3773L48.8159 76.5273L48.186 77.6773L46.9263 80.0818L45.8765 81.8591L45.0366 83.5318L43.9868 85.2045L43.7769 85.7273V86.4591L44.3018 87.5045L45.5615 89.8045L47.1362 92.7318L48.7109 95.45L50.4956 98.4818L51.3354 99.8409L52.9102 102.559L53.75 104.023L55.2197 106.636L56.5845 109.041L57.6343 110.923L58.999 113.327L60.2588 115.418L61.8335 118.136L62.6733 119.495L64.248 122.214L66.3477 125.977L67.1875 127.441L68.5522 129.845L71.2817 134.445L73.3813 137.791L74.0112 138.523L74.4312 138.732H134.06L134.795 138.523L135.53 137.582L137.629 133.923L139.414 130.995L140.779 128.591L141.619 127.232L143.298 124.305L144.873 121.482L146.238 119.077L147.708 116.568L148.652 115L150.017 112.7L151.067 110.923L152.432 108.518L154.006 105.695L154.846 104.441V104.127L121.777 104.023H101.411L95.4272 103.918L94.3774 103.709L93.8525 103.395L93.0127 101.723L91.6479 99.4227L90.2832 97.2273L88.4985 94.3L87.5537 92.7318L87.3438 92L87.6587 91.8955H92.2778L114.639 91.7909H123.982L175.842 91.8955L175.737 92.3136L174.478 94.5091L172.798 97.5409L171.853 99.1091L170.383 101.514L169.333 103.291L168.494 104.545L167.864 105.695L166.289 108.414L164.924 110.818L162.3 115.523L160.2 119.077L158.73 121.482L157.366 123.782L156.526 125.245L154.951 128.068L153.796 130.055L153.167 131.309L151.697 133.818L150.647 135.595L149.807 136.955L148.757 138.732L147.917 140.091L146.553 142.391L144.873 145.318L143.613 147.618L142.773 148.977L142.039 150.127L141.619 150.441L141.094 150.545L137.419 150.65L90.0732 150.755L77.2656 150.859L70.6519 150.755L67.6074 150.65L66.8726 150.441L65.0879 147.514L63.5132 144.691L61.8335 141.764L59.8389 138.418L58.5791 136.327L57.0044 133.609L55.9546 131.727L55.1147 130.264L53.645 127.65L51.8604 124.618L50.6006 122.423L47.2412 116.777L45.9814 114.582L44.9316 112.7L43.4619 110.086L42.4121 108.205L40.6274 105.277L38.8428 102.245L37.583 100.05L36.0083 97.3318L32.6489 91.2682L31.5991 89.3864L30.0244 86.7727L29.9194 86.0409L30.7593 84.1591L32.229 81.4409L33.6987 78.9318L35.1685 76.2136L37.8979 71.4045L38.8428 69.8364L39.8926 68.0591L40.9424 66.3864L42.3071 64.0864L43.5669 61.8909L45.0366 59.2773L46.4014 56.8727L47.5562 54.8864L49.3408 51.8545L50.9155 49.1364L51.9653 47.3591L52.5952 46.2091L54.1699 43.4909L55.6396 40.8773L57.3193 38.0546L58.999 35.1273L60.4688 32.6182L62.2534 29.5864L63.7231 27.0773L64.9829 24.7773L66.0327 23.1046L66.7676 21.7455L67.0825 21.5364L73.9062 21.4318Z" fill="url(#paint0_linear_22_2)"/>
<path d="M123.037 44.9545H128.286L129.126 46.3136L130.071 47.9864L131.541 50.4955L133.01 53.1091L134.69 56.0364L135.005 56.6636V56.9773L134.375 57.0818H89.8633L87.7637 56.9773L87.0288 57.6045L85.979 59.4864L84.5093 61.9955L83.5645 63.6682L80.625 68.6864L77.7905 73.3909L76.7407 75.2727L75.7959 76.9455L74.6411 79.1409L73.3813 81.4409L71.7017 84.3682L71.0718 85.4136L70.8618 85.9364L71.0718 86.8773L72.6465 89.5955L74.0112 92.1045L75.376 94.5091L76.5308 96.6L78.0005 99.1091L79.3652 101.514L80.3101 103.082L81.6748 105.382L83.1445 107.891L84.6143 110.505L85.874 112.7L86.6089 113.85L87.3438 114.791L87.7637 115.209L88.6035 115.314L100.781 115.209H135.005L134.795 115.836L133.745 117.823L132.905 119.495L131.541 121.795L129.441 125.35L128.811 126.5L128.391 127.023L127.866 127.441L88.2886 127.545L81.1499 127.441L80.625 127.232L79.9951 126.5L78.9453 124.723L77.4756 122.214L76.0059 119.495L75.166 118.032L72.0166 112.386L70.5469 109.982L68.0273 105.8L66.7676 103.605L65.5078 101.305L64.1431 98.9L62.6733 96.2864L61.3086 93.8818L60.1538 92L58.999 90.0136L58.1592 88.6545L57.0044 86.4591L57.1094 85.8318L57.6343 84.4727L58.6841 82.4864L60.3638 79.6636L61.4136 77.9909L62.9883 75.2727L64.248 73.0773L65.5078 70.7773L66.8726 68.3727L68.0273 66.3864L70.022 63.0409L70.8618 61.6818L71.7017 60.2182L73.0664 58.0227L74.2212 55.9318L75.166 54.2591L77.0557 50.7045L78.3154 48.4045L79.7852 46.1045L80.415 45.1636L80.625 45.0591L123.037 44.9545Z" fill="#FF6500"/>
</g>
<defs>
<linearGradient id="paint0_linear_22_2" x1="102.881" y1="21.4318" x2="102.881" y2="150.859" gradientUnits="userSpaceOnUse">
<stop stop-color="#FF6500"/>
<stop offset="1" stop-color="#F6FBFF"/>
</linearGradient>
<clipPath id="clip0_22_2">
<rect width="215" height="184" fill="white"/>
</clipPath>
</defs>
</svg>
